<mxfile host="app.diagrams.net" modified="2022-03-09T15:58:38.026Z" agent="5.0 (Windows NT 10.0; Win64; x64) AppleWebKit/537.36 (KHTML, like Gecko) Chrome/99.0.4844.51 Safari/537.36" etag="Bwn5ZpvZ1Dp1RNrydqKP" version="17.0.0" type="github">
  <diagram id="ZzxrlvWUQ_60_Tlj4p9M" name="Page-1">
    <mxGraphModel dx="2067" dy="689" grid="0" gridSize="10" guides="1" tooltips="1" connect="1" arrows="1" fold="1" page="1" pageScale="1" pageWidth="827" pageHeight="1169" background="none" math="0" shadow="0">
      <root>
        <mxCell id="0" />
        <mxCell id="1" parent="0" />
        <mxCell id="bmPnxDkmpWRlroX5KugM-35" style="edgeStyle=orthogonalEdgeStyle;shape=connector;rounded=0;orthogonalLoop=1;jettySize=auto;html=1;exitX=1;exitY=0.5;exitDx=0;exitDy=0;entryX=1;entryY=0.5;entryDx=0;entryDy=0;labelBackgroundColor=default;fontFamily=Helvetica;fontSize=11;fontColor=default;endArrow=none;endFill=0;strokeColor=default;" edge="1" parent="1" source="bmPnxDkmpWRlroX5KugM-1" target="bmPnxDkmpWRlroX5KugM-17">
          <mxGeometry relative="1" as="geometry">
            <Array as="points">
              <mxPoint x="735" y="275" />
              <mxPoint x="735" y="546" />
            </Array>
          </mxGeometry>
        </mxCell>
        <mxCell id="bmPnxDkmpWRlroX5KugM-36" value="1..*" style="edgeLabel;html=1;align=center;verticalAlign=middle;resizable=0;points=[];fontSize=11;fontFamily=Helvetica;fontColor=default;" vertex="1" connectable="0" parent="bmPnxDkmpWRlroX5KugM-35">
          <mxGeometry x="0.9153" relative="1" as="geometry">
            <mxPoint x="-4" y="-8" as="offset" />
          </mxGeometry>
        </mxCell>
        <mxCell id="bmPnxDkmpWRlroX5KugM-37" value="1..1" style="edgeLabel;html=1;align=center;verticalAlign=middle;resizable=0;points=[];fontSize=11;fontFamily=Helvetica;fontColor=default;" vertex="1" connectable="0" parent="bmPnxDkmpWRlroX5KugM-35">
          <mxGeometry x="-0.9628" y="1" relative="1" as="geometry">
            <mxPoint x="4" y="-7" as="offset" />
          </mxGeometry>
        </mxCell>
        <mxCell id="bmPnxDkmpWRlroX5KugM-41" style="edgeStyle=orthogonalEdgeStyle;shape=connector;rounded=0;orthogonalLoop=1;jettySize=auto;html=1;exitX=1;exitY=0.75;exitDx=0;exitDy=0;entryX=1;entryY=0.75;entryDx=0;entryDy=0;labelBackgroundColor=default;fontFamily=Helvetica;fontSize=11;fontColor=default;endArrow=none;endFill=0;strokeColor=default;" edge="1" parent="1">
          <mxGeometry relative="1" as="geometry">
            <mxPoint x="697" y="296" as="sourcePoint" />
            <mxPoint x="699" y="723" as="targetPoint" />
            <Array as="points">
              <mxPoint x="724" y="295.5" />
              <mxPoint x="724" y="723.5" />
            </Array>
          </mxGeometry>
        </mxCell>
        <mxCell id="bmPnxDkmpWRlroX5KugM-42" value="1..1" style="edgeLabel;html=1;align=center;verticalAlign=middle;resizable=0;points=[];fontSize=11;fontFamily=Helvetica;fontColor=default;" vertex="1" connectable="0" parent="bmPnxDkmpWRlroX5KugM-41">
          <mxGeometry x="-0.9514" relative="1" as="geometry">
            <mxPoint x="-1" y="-8" as="offset" />
          </mxGeometry>
        </mxCell>
        <mxCell id="bmPnxDkmpWRlroX5KugM-43" value="1..*" style="edgeLabel;html=1;align=center;verticalAlign=middle;resizable=0;points=[];fontSize=11;fontFamily=Helvetica;fontColor=default;" vertex="1" connectable="0" parent="bmPnxDkmpWRlroX5KugM-41">
          <mxGeometry x="0.9626" relative="1" as="geometry">
            <mxPoint x="1" y="-8" as="offset" />
          </mxGeometry>
        </mxCell>
        <mxCell id="bmPnxDkmpWRlroX5KugM-1" value="project" style="swimlane;fontStyle=1;align=center;verticalAlign=middle;childLayout=stackLayout;horizontal=1;startSize=29;horizontalStack=0;resizeParent=1;resizeParentMax=0;resizeLast=0;collapsible=0;marginBottom=0;html=1;" vertex="1" parent="1">
          <mxGeometry x="557" y="248" width="140" height="54" as="geometry" />
        </mxCell>
        <mxCell id="bmPnxDkmpWRlroX5KugM-4" value="department" style="swimlane;fontStyle=1;align=center;verticalAlign=middle;childLayout=stackLayout;horizontal=1;startSize=29;horizontalStack=0;resizeParent=1;resizeParentMax=0;resizeLast=0;collapsible=0;marginBottom=0;html=1;" vertex="1" parent="1">
          <mxGeometry x="302" y="139" width="140" height="54" as="geometry" />
        </mxCell>
        <mxCell id="bmPnxDkmpWRlroX5KugM-5" value="user" style="swimlane;fontStyle=1;align=center;verticalAlign=middle;childLayout=stackLayout;horizontal=1;startSize=29;horizontalStack=0;resizeParent=1;resizeParentMax=0;resizeLast=0;collapsible=0;marginBottom=0;html=1;" vertex="1" parent="1">
          <mxGeometry x="-9" y="345" width="140" height="54" as="geometry" />
        </mxCell>
        <mxCell id="bmPnxDkmpWRlroX5KugM-47" style="edgeStyle=orthogonalEdgeStyle;shape=connector;rounded=0;orthogonalLoop=1;jettySize=auto;html=1;exitX=0.5;exitY=1;exitDx=0;exitDy=0;entryX=0.5;entryY=0;entryDx=0;entryDy=0;labelBackgroundColor=default;fontFamily=Helvetica;fontSize=11;fontColor=default;endArrow=none;endFill=0;strokeColor=default;" edge="1" parent="1" source="bmPnxDkmpWRlroX5KugM-7" target="bmPnxDkmpWRlroX5KugM-8">
          <mxGeometry relative="1" as="geometry" />
        </mxCell>
        <mxCell id="bmPnxDkmpWRlroX5KugM-48" value="1..*" style="edgeLabel;html=1;align=center;verticalAlign=middle;resizable=0;points=[];fontSize=11;fontFamily=Helvetica;fontColor=default;" vertex="1" connectable="0" parent="bmPnxDkmpWRlroX5KugM-47">
          <mxGeometry x="-0.7297" relative="1" as="geometry">
            <mxPoint x="10" as="offset" />
          </mxGeometry>
        </mxCell>
        <mxCell id="bmPnxDkmpWRlroX5KugM-49" value="1..1" style="edgeLabel;html=1;align=center;verticalAlign=middle;resizable=0;points=[];fontSize=11;fontFamily=Helvetica;fontColor=default;" vertex="1" connectable="0" parent="bmPnxDkmpWRlroX5KugM-47">
          <mxGeometry x="0.7312" relative="1" as="geometry">
            <mxPoint x="11" as="offset" />
          </mxGeometry>
        </mxCell>
        <mxCell id="bmPnxDkmpWRlroX5KugM-7" value="resource" style="swimlane;fontStyle=1;align=center;verticalAlign=middle;childLayout=stackLayout;horizontal=1;startSize=29;horizontalStack=0;resizeParent=1;resizeParentMax=0;resizeLast=0;collapsible=0;marginBottom=0;html=1;" vertex="1" parent="1">
          <mxGeometry x="557" y="28" width="140" height="54" as="geometry" />
        </mxCell>
        <mxCell id="bmPnxDkmpWRlroX5KugM-26" style="edgeStyle=none;rounded=0;orthogonalLoop=1;jettySize=auto;html=1;exitX=0.5;exitY=1;exitDx=0;exitDy=0;endArrow=none;endFill=0;" edge="1" parent="1" source="bmPnxDkmpWRlroX5KugM-8" target="bmPnxDkmpWRlroX5KugM-1">
          <mxGeometry relative="1" as="geometry" />
        </mxCell>
        <mxCell id="bmPnxDkmpWRlroX5KugM-27" value="1..1" style="edgeLabel;html=1;align=center;verticalAlign=middle;resizable=0;points=[];fontSize=11;fontFamily=Helvetica;fontColor=default;" vertex="1" connectable="0" parent="bmPnxDkmpWRlroX5KugM-26">
          <mxGeometry x="0.8385" relative="1" as="geometry">
            <mxPoint x="10" y="-4" as="offset" />
          </mxGeometry>
        </mxCell>
        <mxCell id="bmPnxDkmpWRlroX5KugM-28" value="1..*" style="edgeLabel;html=1;align=center;verticalAlign=middle;resizable=0;points=[];fontSize=11;fontFamily=Helvetica;fontColor=default;" vertex="1" connectable="0" parent="bmPnxDkmpWRlroX5KugM-26">
          <mxGeometry x="-0.7238" relative="1" as="geometry">
            <mxPoint x="10" y="1" as="offset" />
          </mxGeometry>
        </mxCell>
        <mxCell id="bmPnxDkmpWRlroX5KugM-44" style="edgeStyle=orthogonalEdgeStyle;shape=connector;rounded=0;orthogonalLoop=1;jettySize=auto;html=1;exitX=0;exitY=0.5;exitDx=0;exitDy=0;entryX=1;entryY=0.5;entryDx=0;entryDy=0;labelBackgroundColor=default;fontFamily=Helvetica;fontSize=11;fontColor=default;endArrow=none;endFill=0;strokeColor=default;" edge="1" parent="1" source="bmPnxDkmpWRlroX5KugM-8" target="bmPnxDkmpWRlroX5KugM-4">
          <mxGeometry relative="1" as="geometry" />
        </mxCell>
        <mxCell id="bmPnxDkmpWRlroX5KugM-45" value="1..*" style="edgeLabel;html=1;align=center;verticalAlign=middle;resizable=0;points=[];fontSize=11;fontFamily=Helvetica;fontColor=default;" vertex="1" connectable="0" parent="bmPnxDkmpWRlroX5KugM-44">
          <mxGeometry x="-0.8551" y="-1" relative="1" as="geometry">
            <mxPoint x="-4" y="-8" as="offset" />
          </mxGeometry>
        </mxCell>
        <mxCell id="bmPnxDkmpWRlroX5KugM-46" value="1..1" style="edgeLabel;html=1;align=center;verticalAlign=middle;resizable=0;points=[];fontSize=11;fontFamily=Helvetica;fontColor=default;" vertex="1" connectable="0" parent="bmPnxDkmpWRlroX5KugM-44">
          <mxGeometry x="0.8592" relative="1" as="geometry">
            <mxPoint x="2" y="-8" as="offset" />
          </mxGeometry>
        </mxCell>
        <mxCell id="bmPnxDkmpWRlroX5KugM-8" value="team" style="swimlane;fontStyle=1;align=center;verticalAlign=middle;childLayout=stackLayout;horizontal=1;startSize=29;horizontalStack=0;resizeParent=1;resizeParentMax=0;resizeLast=0;collapsible=0;marginBottom=0;html=1;" vertex="1" parent="1">
          <mxGeometry x="557" y="144" width="140" height="44" as="geometry" />
        </mxCell>
        <mxCell id="bmPnxDkmpWRlroX5KugM-9" value="kpi" style="swimlane;fontStyle=1;align=center;verticalAlign=middle;childLayout=stackLayout;horizontal=1;startSize=29;horizontalStack=0;resizeParent=1;resizeParentMax=0;resizeLast=0;collapsible=0;marginBottom=0;html=1;" vertex="1" parent="1">
          <mxGeometry x="559" y="675" width="140" height="54" as="geometry" />
        </mxCell>
        <mxCell id="bmPnxDkmpWRlroX5KugM-10" value="profitAndLoss" style="swimlane;fontStyle=1;align=center;verticalAlign=middle;childLayout=stackLayout;horizontal=1;startSize=29;horizontalStack=0;resizeParent=1;resizeParentMax=0;resizeLast=0;collapsible=0;marginBottom=0;html=1;" vertex="1" parent="1">
          <mxGeometry x="322" y="462" width="140" height="54" as="geometry" />
        </mxCell>
        <mxCell id="bmPnxDkmpWRlroX5KugM-29" style="edgeStyle=orthogonalEdgeStyle;shape=connector;rounded=0;orthogonalLoop=1;jettySize=auto;html=1;exitX=0.5;exitY=0;exitDx=0;exitDy=0;entryX=0.5;entryY=1;entryDx=0;entryDy=0;labelBackgroundColor=default;fontFamily=Helvetica;fontSize=11;fontColor=default;endArrow=none;endFill=0;strokeColor=default;" edge="1" parent="1" source="bmPnxDkmpWRlroX5KugM-14" target="bmPnxDkmpWRlroX5KugM-1">
          <mxGeometry relative="1" as="geometry" />
        </mxCell>
        <mxCell id="bmPnxDkmpWRlroX5KugM-30" value="1..1" style="edgeLabel;html=1;align=center;verticalAlign=middle;resizable=0;points=[];fontSize=11;fontFamily=Helvetica;fontColor=default;" vertex="1" connectable="0" parent="bmPnxDkmpWRlroX5KugM-29">
          <mxGeometry x="0.7802" y="-2" relative="1" as="geometry">
            <mxPoint x="8" as="offset" />
          </mxGeometry>
        </mxCell>
        <mxCell id="bmPnxDkmpWRlroX5KugM-31" value="1..1" style="edgeLabel;html=1;align=center;verticalAlign=middle;resizable=0;points=[];fontSize=11;fontFamily=Helvetica;fontColor=default;" vertex="1" connectable="0" parent="bmPnxDkmpWRlroX5KugM-29">
          <mxGeometry x="-0.6852" relative="1" as="geometry">
            <mxPoint x="10" y="1" as="offset" />
          </mxGeometry>
        </mxCell>
        <mxCell id="bmPnxDkmpWRlroX5KugM-14" value="&lt;span style=&quot;text-align: left;&quot;&gt;schedule&lt;/span&gt;" style="swimlane;fontStyle=1;align=center;verticalAlign=middle;childLayout=stackLayout;horizontal=1;startSize=29;horizontalStack=0;resizeParent=1;resizeParentMax=0;resizeLast=0;collapsible=0;marginBottom=0;html=1;shadow=0;" vertex="1" parent="1">
          <mxGeometry x="557" y="369" width="140" height="54" as="geometry" />
        </mxCell>
        <mxCell id="bmPnxDkmpWRlroX5KugM-17" value="&lt;span style=&quot;text-align: left&quot;&gt;risk&lt;/span&gt;" style="swimlane;fontStyle=1;align=center;verticalAlign=middle;childLayout=stackLayout;horizontal=1;startSize=29;horizontalStack=0;resizeParent=1;resizeParentMax=0;resizeLast=0;collapsible=0;marginBottom=0;html=1;shadow=0;" vertex="1" parent="1">
          <mxGeometry x="559" y="519" width="140" height="54" as="geometry" />
        </mxCell>
        <mxCell id="bmPnxDkmpWRlroX5KugM-38" style="edgeStyle=orthogonalEdgeStyle;shape=connector;rounded=0;orthogonalLoop=1;jettySize=auto;html=1;exitX=0;exitY=0.5;exitDx=0;exitDy=0;entryX=0;entryY=0.75;entryDx=0;entryDy=0;labelBackgroundColor=default;fontFamily=Helvetica;fontSize=11;fontColor=default;endArrow=none;endFill=0;strokeColor=default;" edge="1" parent="1" source="bmPnxDkmpWRlroX5KugM-18" target="bmPnxDkmpWRlroX5KugM-1">
          <mxGeometry relative="1" as="geometry">
            <Array as="points">
              <mxPoint x="521" y="627" />
              <mxPoint x="521" y="299" />
              <mxPoint x="557" y="299" />
            </Array>
          </mxGeometry>
        </mxCell>
        <mxCell id="bmPnxDkmpWRlroX5KugM-39" value="1..1" style="edgeLabel;html=1;align=center;verticalAlign=middle;resizable=0;points=[];fontSize=11;fontFamily=Helvetica;fontColor=default;" vertex="1" connectable="0" parent="bmPnxDkmpWRlroX5KugM-38">
          <mxGeometry x="0.9095" y="-1" relative="1" as="geometry">
            <mxPoint x="-3" y="-9" as="offset" />
          </mxGeometry>
        </mxCell>
        <mxCell id="bmPnxDkmpWRlroX5KugM-40" value="1..*" style="edgeLabel;html=1;align=center;verticalAlign=middle;resizable=0;points=[];fontSize=11;fontFamily=Helvetica;fontColor=default;" vertex="1" connectable="0" parent="bmPnxDkmpWRlroX5KugM-38">
          <mxGeometry x="-0.9628" y="-1" relative="1" as="geometry">
            <mxPoint x="-4" y="-7" as="offset" />
          </mxGeometry>
        </mxCell>
        <mxCell id="bmPnxDkmpWRlroX5KugM-18" value="&lt;span style=&quot;text-align: left&quot;&gt;changeLog&lt;/span&gt;" style="swimlane;fontStyle=1;align=center;verticalAlign=middle;childLayout=stackLayout;horizontal=1;startSize=29;horizontalStack=0;resizeParent=1;resizeParentMax=0;resizeLast=0;collapsible=0;marginBottom=0;html=1;shadow=0;" vertex="1" parent="1">
          <mxGeometry x="559" y="600" width="140" height="54" as="geometry" />
        </mxCell>
        <mxCell id="bmPnxDkmpWRlroX5KugM-32" style="edgeStyle=orthogonalEdgeStyle;shape=connector;rounded=0;orthogonalLoop=1;jettySize=auto;html=1;exitX=0;exitY=0.5;exitDx=0;exitDy=0;entryX=0;entryY=0.5;entryDx=0;entryDy=0;labelBackgroundColor=default;fontFamily=Helvetica;fontSize=11;fontColor=default;endArrow=none;endFill=0;strokeColor=default;" edge="1" parent="1" source="bmPnxDkmpWRlroX5KugM-19" target="bmPnxDkmpWRlroX5KugM-1">
          <mxGeometry relative="1" as="geometry">
            <Array as="points">
              <mxPoint x="557" y="475" />
              <mxPoint x="533" y="475" />
              <mxPoint x="533" y="275" />
            </Array>
          </mxGeometry>
        </mxCell>
        <mxCell id="bmPnxDkmpWRlroX5KugM-33" value="1..*" style="edgeLabel;html=1;align=center;verticalAlign=middle;resizable=0;points=[];fontSize=11;fontFamily=Helvetica;fontColor=default;" vertex="1" connectable="0" parent="bmPnxDkmpWRlroX5KugM-32">
          <mxGeometry x="-0.9083" relative="1" as="geometry">
            <mxPoint x="-3" y="-8" as="offset" />
          </mxGeometry>
        </mxCell>
        <mxCell id="bmPnxDkmpWRlroX5KugM-34" value="1..1" style="edgeLabel;html=1;align=center;verticalAlign=middle;resizable=0;points=[];fontSize=11;fontFamily=Helvetica;fontColor=default;" vertex="1" connectable="0" parent="bmPnxDkmpWRlroX5KugM-32">
          <mxGeometry x="0.942" y="1" relative="1" as="geometry">
            <mxPoint x="-4" y="-7" as="offset" />
          </mxGeometry>
        </mxCell>
        <mxCell id="bmPnxDkmpWRlroX5KugM-19" value="&lt;span style=&quot;text-align: left&quot;&gt;retrospective&lt;/span&gt;" style="swimlane;fontStyle=1;align=center;verticalAlign=middle;childLayout=stackLayout;horizontal=1;startSize=29;horizontalStack=0;resizeParent=1;resizeParentMax=0;resizeLast=0;collapsible=0;marginBottom=0;html=1;shadow=0;" vertex="1" parent="1">
          <mxGeometry x="557" y="444" width="140" height="54" as="geometry" />
        </mxCell>
      </root>
    </mxGraphModel>
  </diagram>
</mxfile>
